<svg width="907" height="104" viewBox="0 0 907 104" fill="none" xmlns="http://www.w3.org/2000/svg">
<path id="path" d="M906 52C906 53.4794 905.351 55.027 903.91 56.6537C902.464 58.2865 900.265 59.9445 897.298 61.6074C891.363 64.9329 882.546 68.1726 871.1 71.2756C848.224 77.4772 815.075 83.073 774.059 87.7761C692.04 97.1807 578.705 103 453.5 103C328.295 103 214.96 97.1807 132.941 87.7761C91.9249 83.073 58.7762 77.4772 35.8999 71.2756C24.454 68.1726 15.6369 64.9329 9.70234 61.6074C6.73459 59.9445 4.53614 58.2865 3.08997 56.6537C1.64922 55.027 1 53.4794 1 52C1 50.5206 1.64922 48.973 3.08997 47.3463C4.53614 45.7135 6.73459 44.0555 9.70234 42.3926C15.6369 39.0671 24.454 35.8274 35.8999 32.7244C58.7762 26.5228 91.9249 20.927 132.941 16.2239C214.96 6.81934 328.295 1 453.5 1C578.705 1 692.04 6.81934 774.059 16.2239C815.075 20.927 848.224 26.5228 871.1 32.7244C882.546 35.8274 891.363 39.0671 897.298 42.3926C900.265 44.0555 902.464 45.7135 903.91 47.3463C905.351 48.973 906 50.5206 906 52Z" stroke="url(#paint0_linear_2840_4915)" stroke-width="2"/>
<defs>
<linearGradient id="paint0_linear_2840_4915" x1="454" y1="104" x2="454" y2="23" gradientUnits="userSpaceOnUse">
<stop stop-color="#61EDF4"/>
<stop offset="1" stop-color="#61EDF4" stop-opacity="0"/>
</linearGradient>
</defs>
</svg>
